# xmcd
#
# Track frame offsets: 
#        150
#        22115
#        38447
#        56971
#        73055
#        86724
#        99609
#        121202
#        133506
#        144081
#        162923
#        178805
#        200293
#        216012
#        234670
#        251202
#        286528
#
# Disc length: 4186 seconds
#
# Revision: 0
# Processed by: cddbd v1.5.2PL0 Copyright (c) Steve Scherf et al.
# Submitted via: ExactAudioCopy v1.3
#
DISCID=f4105811
DTITLE=Various Artist - Best of WUNC's Back Porch Music Volume 20
DYEAR=2017
DGENRE=Bluegrass
TTITLE0=Kate Rusby - Who Knows Where the Time Goes
TTITLE1=Mark Erelli - Birches
TTITLE2=I Draw Slow - Carolina
TTITLE3=Robin and Linda Williams - Maybelle's Guitar and Monroe's Mandol
TTITLE3=in
TTITLE4=Eck Robertson - Arkansas Traveler
TTITLE5=Gillian Welch - Witchita (Revival Outtake)
TTITLE6=Doolin' - Ballad of Hollis Brown
TTITLE7=The Red Headed Fiddlers - Far in the Mountain
TTITLE8=Elizabeth LaPrelle - Storms are on the Ocean
TTITLE9=Mike McAuley - The Constellation Slides
TTITLE10=Joe Newberry - I Know Whose Tears
TTITLE11=Cathy Fink and Marcy Marxer - Blues Stay Away From Me
TTITLE12=The Bucking Mules - Smoke Behind the Clouds
TTITLE13=Guy Davis and Fabrizio Poggi - Take This Hammer
TTITLE14=Piedmont Melody Makers - Just Keep Waiting Till the Good Time
TTITLE14=Come
TTITLE15=Garnet Rogers - Next Turn of the Wind
TTITLE16=the ollam - Bridge of Glllass
EXTD=
EXTT0=
EXTT1=
EXTT2=
EXTT3=
EXTT4=
EXTT5=
EXTT6=
EXTT7=
EXTT8=
EXTT9=
EXTT10=
EXTT11=
EXTT12=
EXTT13=
EXTT14=
EXTT15=
EXTT16=
PLAYORDER=
